<svg xmlns="http://www.w3.org/2000/svg" width="40" height="40" viewBox="0 0 40 40" fill="none"><path d="M13.096 20.354l4.53 2.093-.58 5.206-8.097 9.175A19.99 19.99 0 0 1 0 23.108l13.096-2.754Z" fill="#15E3FF"/><path d="m25.183 25.94 6.058 10.439A19.9 19.9 0 0 1 19.761 40c-1.387 0-2.74-.141-4.048-.41l1.333-11.937 3.43-3.887 4.707 2.174Z" fill="#348DFC"/><path d="M39.102 14.881c.431 1.633.661 3.348.661 5.117a19.9 19.9 0 0 1-3.376 11.123L25.184 25.94l-2.629-4.528 3.302-3.743 13.245-2.788Z" fill="#FD4873"/><path d="M20.132 0a19.94 19.94 0 0 1 14.983 7.178l-9.259 10.491-4.877 1.027-2.46-4.239L20.132 0Z" fill="#FFC700"/><path d="m18.519 14.457-.545 4.87-4.875 1.026L.515 14.535A20.05 20.05 0 0 1 11.233 1.901l7.286 12.556Z" fill="#00E7B9"/></svg>
